<?xml version="1.0" encoding="iso-8859-1"?>
<!-- Generator: Adobe Illustrator 19.0.0, SVG Export Plug-In . SVG Version: 6.00 Build 0)  -->
<svg version="1.1" id="Capa_1" xmlns="http://www.w3.org/2000/svg" xmlns:xlink="http://www.w3.org/1999/xlink" x="0px" y="0px"
	 viewBox="0 0 512 512" style="enable-background:new 0 0 512 512;" xml:space="preserve">
<g>
	<polygon style="fill:#E6E6E6;" points="256.005,88.274 291.314,61.792 291.314,0 256.005,0 238.35,17.655 220.695,0 167.73,0 
		150.075,17.655 132.42,0 97.111,0 97.111,61.792 132.42,88.274 	"/>
	<path style="fill:#E6E6E6;" d="M329.811,194.618c-21.548-28.204-50.608-49.76-83.843-62.207h-103.51
		C54.227,163.466,0.009,270.79,0.009,361.448c0,107.289,86.95,150.543,194.204,150.543c23.649,0.177,47.244-2.242,70.363-7.212
		V194.204L329.811,194.618z"/>
</g>
<rect x="132.412" y="88.274" style="fill:#2996BF;" width="123.584" height="44.137"/>
<g>
	<path style="fill:#CCCCCC;" d="M256.005,476.681c-107.253,0-194.204-43.254-194.204-150.543
		c0-68.377,30.896-146.271,83.975-193.727h-3.319C54.227,163.466,0.009,270.79,0.009,361.448
		c0,107.289,86.95,150.543,194.204,150.543c23.649,0.177,47.244-2.242,70.363-7.212v-28.301
		C261.716,476.54,258.891,476.681,256.005,476.681z"/>
	<path style="fill:#CCCCCC;" d="M326.368,194.601h3.443c-1.112-1.395-2.304-2.71-3.443-4.078V194.601z"/>
</g>
<circle style="fill:#FAD87C;" cx="194.204" cy="326.615" r="105.929"/>
<path style="opacity:0.3;fill:#E97424;enable-background:new    ;" d="M231.288,395.469
	c-58.411,0.088-105.841-47.191-105.929-105.611c-0.026-19.111,5.12-37.87,14.892-54.28c-50.325,29.757-67,94.674-37.243,144.999
	s94.674,67,144.999,37.243c15.351-9.075,28.168-21.892,37.243-37.243C268.937,390.323,250.284,395.469,231.288,395.469z"/>
<rect x="264.823" y="194.204" style="fill:#2996BF;" width="247.168" height="317.788"/>
<rect x="264.823" y="194.204" style="fill:#E3646A;" width="247.168" height="70.619"/>
<g>
	<rect x="300.133" y="300.133" style="fill:#FAD87C;" width="35.31" height="35.31"/>
	<rect x="370.752" y="300.133" style="fill:#FAD87C;" width="35.31" height="35.31"/>
	<rect x="441.372" y="300.133" style="fill:#FAD87C;" width="35.31" height="35.31"/>
	<rect x="300.133" y="370.752" style="fill:#FAD87C;" width="35.31" height="35.31"/>
	<rect x="370.752" y="370.752" style="fill:#FAD87C;" width="35.31" height="35.31"/>
	<rect x="300.133" y="441.372" style="fill:#FAD87C;" width="35.31" height="35.31"/>
	<rect x="370.752" y="441.372" style="fill:#FAD87C;" width="35.31" height="35.31"/>
	<rect x="441.372" y="370.752" style="fill:#FAD87C;" width="35.31" height="105.929"/>
</g>
<g>
	<path style="fill:#006684;" d="M194.212,388.407c-19.5,0-35.31-15.81-35.31-35.31h17.655c0,9.754,7.901,17.655,17.655,17.655
		c9.754,0,17.655-7.901,17.655-17.655c0-6.744-4.317-12.738-10.717-14.874l-19.464-6.471c-13.612-4.528-22.792-17.275-22.784-31.62
		c0-19.5,15.81-35.31,35.31-35.31s35.31,15.81,35.31,35.31h-17.655c0-9.754-7.901-17.655-17.655-17.655
		c-9.754,0-17.655,7.901-17.655,17.655c0,6.744,4.317,12.738,10.717,14.874l19.464,6.471c13.612,4.528,22.792,17.275,22.784,31.62
		C229.522,372.597,213.712,388.407,194.212,388.407z"/>
	<rect x="185.376" y="247.168" style="fill:#006684;" width="17.655" height="26.482"/>
	<rect x="185.376" y="379.58" style="fill:#006684;" width="17.655" height="26.482"/>
	<rect x="467.854" y="220.686" style="fill:#006684;" width="17.655" height="17.655"/>
	<rect x="432.544" y="220.686" style="fill:#006684;" width="17.655" height="17.655"/>
	<rect x="397.235" y="220.686" style="fill:#006684;" width="17.655" height="17.655"/>
</g>
<g>
</g>
<g>
</g>
<g>
</g>
<g>
</g>
<g>
</g>
<g>
</g>
<g>
</g>
<g>
</g>
<g>
</g>
<g>
</g>
<g>
</g>
<g>
</g>
<g>
</g>
<g>
</g>
<g>
</g>
</svg>
